<svg xmlns="http://www.w3.org/2000/svg" fill="none" viewBox="-1 -1 48 48" id="Telegram-Logo-1--Streamline-Logos.svg" height="48" width="48"><desc>Telegram Logo 1 Streamline Icon: https://streamlinehq.com</desc><path stroke="#000000" stroke-linecap="round" stroke-linejoin="round" d="M9.859333333333334 21.926666666666666a0.48875 0.48875 0 0 0 -0.3105 0.45041666666666663c0 0.1955 0.12841666666666668 0.37950000000000006 0.3105 0.44850000000000007l5.725083333333334 2.089166666666667 11.795166666666667 -6.089250000000001a0.2951666666666667 0.2951666666666667 0 0 1 0.3641666666666667 0.09583333333333334 0.2951666666666667 0.2951666666666667 0 0 1 -0.042166666666666665 0.37375l-8.465916666666667 7.463500000000001 9.422333333333334 6.8195c0.12841666666666668 0.09200000000000001 0.30091666666666667 0.115 0.44850000000000007 0.06133333333333334a0.48683333333333334 0.48683333333333334 0 0 0 0.299 -0.33925L34.11666666666667 13.485666666666667a0.48683333333333334 0.48683333333333334 0 0 0 -0.1495 -0.47150000000000003 0.48683333333333334 0.48683333333333334 0 0 0 -0.48683333333333334 -0.08816666666666667L9.859333333333334 21.926666666666666Z" stroke-width="2"></path><path stroke="#000000" stroke-linecap="round" stroke-linejoin="round" d="m15.584416666666668 24.916666666666668 1.4739166666666668 7.507583333333333c0.046000000000000006 0.21466666666666667 0.24916666666666668 0.37950000000000006 0.4676666666666667 0.37950000000000006a0.4906666666666667 0.4906666666666667 0 0 0 0.46958333333333335 -0.37950000000000006l1.2324166666666667 -5.665666666666667" stroke-width="2"></path><path stroke="#000000" stroke-linecap="round" stroke-linejoin="round" d="m22.814083333333336 29.355666666666668 -4.983333333333333 3.3503333333333334" stroke-width="2"></path><path stroke="#000000" stroke-linejoin="round" d="M2.875 23a20.125 20.125 0 1 0 40.25 0 20.125 20.125 0 1 0 -40.25 0" stroke-width="2"></path></svg>