<svg xmlns="http://www.w3.org/2000/svg" fill="none" viewBox="-1 -1 48 48" id="Whatsapp-Logo--Streamline-Logos.svg" height="48" width="48"><desc>Whatsapp Logo Streamline Icon: https://streamlinehq.com</desc><path stroke="#000000" stroke-linejoin="round" d="M32.583333333333336 31.625c-3.335 3.335 -11.018916666666666 0.4925833333333334 -14.859916666666667 -3.348416666666667C13.882416666666668 24.435583333333334 11.04 16.75166666666667 14.375 13.416666666666668c0.9660000000000001 -0.9660000000000001 2.2961666666666667 -1.081 3.1088333333333336 -1.0426666666666669 0.46958333333333335 0.021083333333333332 0.8759166666666668 0.29708333333333337 1.15 0.6804166666666667l1.8246666666666667 2.5568333333333335a1.9166666666666667 1.9166666666666667 0 0 1 -0.20508333333333334 2.468666666666667l-1.7269166666666669 1.7269166666666669c0.3181666666666667 0.9583333333333334 1.3416666666666666 3.2583333333333333 2.875 4.791666666666667s3.8333333333333335 2.5568333333333335 4.791666666666667 2.875l1.7269166666666669 -1.725a1.9166666666666667 1.9166666666666667 0 0 1 2.468666666666667 -0.20700000000000002l2.5568333333333335 1.8246666666666667c0.38333333333333336 0.27408333333333335 0.6593333333333333 0.6804166666666667 0.6804166666666667 1.15 0.03833333333333334 0.8126666666666666 -0.07666666666666667 2.142833333333334 -1.0426666666666669 3.1088333333333336Z" stroke-width="2"></path><path stroke="#000000" stroke-linejoin="round" d="M23 43.125c11.11475 0 20.125 -9.01025 20.125 -20.125S34.11475 2.875 23 2.875 2.875 11.88525 2.875 23c0 3.6646666666666667 0.9794166666666667 7.103166666666667 2.6929166666666666 10.0625l-1.6866666666666668 9.05625 9.05625 -1.6866666666666668A20.033 20.033 0 0 0 23 43.125Z" stroke-width="2"></path></svg>