<?xml version="1.0" encoding="UTF-8"?>
<!DOCTYPE svg PUBLIC "-//W3C//DTD SVG 1.1//EN" "http://www.w3.org/Graphics/SVG/1.1/DTD/svg11.dtd">
<svg xmlns="http://www.w3.org/2000/svg" version="1.1" width="200px" height="200px" style="shape-rendering:geometricPrecision; text-rendering:geometricPrecision; image-rendering:optimizeQuality; fill-rule:evenodd; clip-rule:evenodd" xmlns:xlink="http://www.w3.org/1999/xlink">
<g><path style="opacity:1" fill="#fefefe" d="M -0.5,-0.5 C 66.1667,-0.5 132.833,-0.5 199.5,-0.5C 199.5,66.1667 199.5,132.833 199.5,199.5C 132.833,199.5 66.1667,199.5 -0.5,199.5C -0.5,132.833 -0.5,66.1667 -0.5,-0.5 Z"/></g>
<g><path style="opacity:1" fill="#63c137" d="M 100.5,21.5 C 102.5,21.5 104.5,21.5 106.5,21.5C 106.351,22.552 106.517,23.552 107,24.5C 110.286,20.5149 113.619,20.5149 117,24.5C 118.444,29.2558 117.277,33.0891 113.5,36C 110.364,37.0405 107.864,36.2072 106,33.5C 105.503,36.146 105.336,38.8127 105.5,41.5C 103.5,41.5 101.5,41.5 99.5,41.5C 99.9538,34.8407 100.287,28.1741 100.5,21.5 Z"/></g>
<g><path style="opacity:1" fill="#61c034" d="M 83.5,22.5 C 87.3076,22.1632 90.9743,22.6632 94.5,24C 98.488,30.9096 96.488,35.2429 88.5,37C 80.8105,36.9592 77.9771,33.1259 80,25.5C 81.1451,24.3636 82.3117,23.3636 83.5,22.5 Z"/></g>
<g><path style="opacity:1" fill="#65c239" d="M 123.5,24.5 C 125.714,24.2907 127.381,25.124 128.5,27C 127.496,28.7983 126.996,30.6316 127,32.5C 128.719,30.4429 130.719,28.7763 133,27.5C 136.881,27.8874 138.547,29.8874 138,33.5C 137.075,36.9706 135.408,39.9706 133,42.5C 131.605,42.2196 130.438,41.5529 129.5,40.5C 130.548,38.5441 131.048,36.5441 131,34.5C 129.316,36.3513 127.483,38.018 125.5,39.5C 123.067,38.977 121.067,37.8104 119.5,36C 121.137,32.2559 122.47,28.4225 123.5,24.5 Z"/></g>
<g><path style="opacity:1" fill="#64c238" d="M 72.5,25.5 C 73.9649,26.4057 74.9649,27.739 75.5,29.5C 73.7127,30.316 72.0461,31.316 70.5,32.5C 71.8333,35.1667 73.1667,37.8333 74.5,40.5C 72.7244,42.4468 70.7244,42.7801 68.5,41.5C 67.3333,39.1667 66.1667,36.8333 65,34.5C 62.2013,37.4077 60.0347,37.0744 58.5,33.5C 62.9006,30.3017 67.5672,27.6351 72.5,25.5 Z"/></g>
<g><path style="opacity:1" fill="#f6fbf3" d="M 86.5,26.5 C 90.35,26.7007 91.35,28.5341 89.5,32C 86.7629,33.0798 85.0963,32.2464 84.5,29.5C 84.9424,28.2613 85.6091,27.2613 86.5,26.5 Z"/></g>
<g><path style="opacity:1" fill="#f3faef" d="M 107.5,25.5 C 111.35,25.7007 112.35,27.5341 110.5,31C 106.537,31.1177 105.537,29.2843 107.5,25.5 Z"/></g>
<g><path style="opacity:1" fill="#65c239" d="M 142.5,35.5 C 148.528,36.329 153.528,39.1623 157.5,44C 154.216,47.4055 151.05,50.9055 148,54.5C 146.926,53.3816 145.76,52.3816 144.5,51.5C 147.332,46.3496 146.165,45.3496 141,48.5C 135.082,45.7208 135.248,43.7208 141.5,42.5C 140.328,39.9946 140.662,37.6613 142.5,35.5 Z"/></g>
<g><path style="opacity:1" fill="#62c135" d="M 53.5,35.5 C 54.4731,37.9479 54.8064,40.6146 54.5,43.5C 57.8934,43.0617 60.8934,43.8951 63.5,46C 60.9492,49.4235 57.6159,50.4235 53.5,49C 53.1667,49.3333 52.8333,49.6667 52.5,50C 56.6749,52.8245 56.3416,54.9912 51.5,56.5C 47.7881,53.7891 44.7881,50.4558 42.5,46.5C 44.5531,42.5879 46.7198,42.5879 49,46.5C 48.6498,41.9779 50.1498,38.3112 53.5,35.5 Z"/></g>
<g><path style="opacity:1" fill="#ecf7e7" d="M 145.5,41.5 C 147.48,40.6324 149.147,41.2991 150.5,43.5C 150.167,43.8333 149.833,44.1667 149.5,44.5C 147.84,43.8284 146.507,42.8284 145.5,41.5 Z"/></g>
<g><path style="opacity:1" fill="#63c136" d="M 37.5,52.5 C 41.6326,54.4 45.6326,56.5667 49.5,59C 48.5399,60.4194 47.7065,61.9194 47,63.5C 38.9599,58.2332 38.4599,59.2332 45.5,66.5C 44.6999,69.1332 43.1999,71.1332 41,72.5C 37.2359,70.7042 33.7359,68.5376 30.5,66C 30.7247,64.3791 31.558,63.2125 33,62.5C 34.6565,63.4841 36.3232,64.4841 38,65.5C 37.2318,63.1564 36.0651,60.8231 34.5,58.5C 35.5133,56.4734 36.5133,54.4734 37.5,52.5 Z"/></g>
<g><path style="opacity:1" fill="#67c23b" d="M 160.5,55.5 C 161.675,55.281 162.675,55.6143 163.5,56.5C 164.713,59.0952 166.047,61.5952 167.5,64C 166.465,65.2737 165.298,66.4404 164,67.5C 162.034,64.399 160.2,61.2324 158.5,58C 159.056,56.9889 159.722,56.1556 160.5,55.5 Z"/></g>
<g><path style="opacity:1" fill="#153002" d="M 104.5,60.5 C 105.833,60.5 107.167,60.5 108.5,60.5C 108.5,62.8333 108.5,65.1667 108.5,67.5C 108.5,69.1667 108.5,70.8333 108.5,72.5C 107.659,74.3792 107.325,76.3792 107.5,78.5C 106.662,78.8417 106.328,79.5084 106.5,80.5C 104.708,80.366 103.042,80.6993 101.5,81.5C 101.5,79.1667 101.5,76.8333 101.5,74.5C 101.5,69.8333 101.5,65.1667 101.5,60.5C 102.5,60.5 103.5,60.5 104.5,60.5 Z"/></g>
<g><path style="opacity:1" fill="#20660c" d="M 104.5,60.5 C 103.5,60.5 102.5,60.5 101.5,60.5C 101.5,65.1667 101.5,69.8333 101.5,74.5C 100.685,73.5707 99.8518,72.5707 99,71.5C 96.8199,73.8633 95.1532,76.53 94,79.5C 92.7292,78.1175 91.2292,77.1175 89.5,76.5C 89.4431,75.391 89.1098,74.391 88.5,73.5C 89.4834,69.7016 89.8168,65.7016 89.5,61.5C 94.5276,59.6022 99.5276,59.2689 104.5,60.5 Z"/></g>
<g><path style="opacity:1" fill="#1a360b" d="M 89.5,61.5 C 89.8168,65.7016 89.4834,69.7016 88.5,73.5C 87.8699,69.9523 86.8699,66.6189 85.5,63.5C 86.6715,62.6554 88.0048,61.9887 89.5,61.5 Z"/></g>
<g><path style="opacity:1" fill="#57a745" d="M 85.5,63.5 C 86.8699,66.6189 87.8699,69.9523 88.5,73.5C 89.1098,74.391 89.4431,75.391 89.5,76.5C 88.391,76.5569 87.391,76.8902 86.5,77.5C 86.6567,76.1266 86.49,74.7932 86,73.5C 84.6705,76.829 82.8372,79.829 80.5,82.5C 80.1667,82.5 79.8333,82.5 79.5,82.5C 77.1667,83.8333 74.8333,83.8333 72.5,82.5C 71.1007,81.1103 69.4341,80.1103 67.5,79.5C 71.9566,72.3737 77.9566,67.0404 85.5,63.5 Z"/></g>
<g><path style="opacity:1" fill="#59a846" d="M 108.5,60.5 C 120.413,63.094 129.079,69.7607 134.5,80.5C 133.833,80.5 133.167,80.5 132.5,80.5C 131.521,77.8433 129.854,77.1766 127.5,78.5C 130.364,81.7727 130.03,84.4393 126.5,86.5C 125.167,85.1667 123.833,83.8333 122.5,82.5C 121.548,84.0453 121.215,85.712 121.5,87.5C 118.786,84.7846 115.786,82.4512 112.5,80.5C 114.078,78.6824 113.578,77.6824 111,77.5C 109.674,77.7549 108.674,78.4216 108,79.5C 107.601,79.2716 107.435,78.9382 107.5,78.5C 107.325,76.3792 107.659,74.3792 108.5,72.5C 116.294,71.0687 116.294,69.402 108.5,67.5C 108.5,65.1667 108.5,62.8333 108.5,60.5 Z"/></g>
<g><path style="opacity:1" fill="#1a6504" d="M 108.5,67.5 C 116.294,69.402 116.294,71.0687 108.5,72.5C 108.5,70.8333 108.5,69.1667 108.5,67.5 Z"/></g>
<g><path style="opacity:1" fill="#76c5ae" d="M 101.5,74.5 C 101.5,76.8333 101.5,79.1667 101.5,81.5C 94.8551,85.1462 89.5218,90.1462 85.5,96.5C 84.609,97.1098 83.609,97.4431 82.5,97.5C 81.391,97.4431 80.391,97.1098 79.5,96.5C 75.6479,95.1217 75.6479,93.4551 79.5,91.5C 81.0858,90.8519 82.7525,90.3519 84.5,90C 82.4598,87.8149 81.1264,85.3149 80.5,82.5C 82.924,82.8076 85.2573,82.4742 87.5,81.5C 86.7542,80.2638 86.4208,78.9305 86.5,77.5C 87.391,76.8902 88.391,76.5569 89.5,76.5C 91.2292,77.1175 92.7292,78.1175 94,79.5C 95.1532,76.53 96.8199,73.8633 99,71.5C 99.8518,72.5707 100.685,73.5707 101.5,74.5 Z"/></g>
<g><path style="opacity:1" fill="#65c239" d="M 23.5,74.5 C 25.5273,74.3379 27.5273,74.5045 29.5,75C 30.1258,75.7504 30.6258,76.5838 31,77.5C 34,73.5 37,73.5 40,77.5C 40.1622,83.8688 39.6622,90.2021 38.5,96.5C 32.4582,95.7153 26.4582,94.7153 20.5,93.5C 19.6511,86.924 20.6511,80.5907 23.5,74.5 Z"/></g>
<g><path style="opacity:1" fill="#62c135" d="M 172.5,75.5 C 180.426,77.3311 183.259,82.3311 181,90.5C 179.184,94.6632 176.351,95.4965 172.5,93C 170.288,90.0788 168.455,86.9121 167,83.5C 167.287,87.2173 168.121,90.884 169.5,94.5C 167.604,95.4656 165.604,95.7989 163.5,95.5C 162.366,89.5593 161.699,83.5593 161.5,77.5C 163.199,77.3398 164.866,77.5065 166.5,78C 169.625,81.1129 172.625,84.2796 175.5,87.5C 177.395,83.8573 176.395,81.8573 172.5,81.5C 172.5,79.5 172.5,77.5 172.5,75.5 Z"/></g>
<g><path style="opacity:1" fill="#1a6105" d="M 86.5,77.5 C 86.4208,78.9305 86.7542,80.2638 87.5,81.5C 85.2573,82.4742 82.924,82.8076 80.5,82.5C 82.8372,79.829 84.6705,76.829 86,73.5C 86.49,74.7932 86.6567,76.1266 86.5,77.5 Z"/></g>
<g><path style="opacity:1" fill="#26650a" d="M 112.5,80.5 C 110.5,80.5 108.5,80.5 106.5,80.5C 106.328,79.5084 106.662,78.8417 107.5,78.5C 107.435,78.9382 107.601,79.2716 108,79.5C 108.674,78.4216 109.674,77.7549 111,77.5C 113.578,77.6824 114.078,78.6824 112.5,80.5 Z"/></g>
<g><path style="opacity:1" fill="#196104" d="M 67.5,79.5 C 69.4341,80.1103 71.1007,81.1103 72.5,82.5C 71.5033,85.005 71.5033,87.6717 72.5,90.5C 71.2264,97.0374 71.2264,103.704 72.5,110.5C 71.5206,113.625 71.1872,116.958 71.5,120.5C 64.4838,111.431 61.9838,101.098 64,89.5C 64.8981,86.0447 66.0647,82.7113 67.5,79.5 Z"/></g>
<g><path style="opacity:1" fill="#f2726a" d="M 106.5,80.5 C 108.5,80.5 110.5,80.5 112.5,80.5C 115.786,82.4512 118.786,84.7846 121.5,87.5C 124.601,97.578 125.768,107.911 125,118.5C 123.961,119.71 122.794,120.71 121.5,121.5C 120.167,121.5 118.833,121.5 117.5,121.5C 116.432,120.566 115.099,120.232 113.5,120.5C 108.493,120.249 103.493,119.916 98.5,119.5C 87.1741,115.853 82.8408,108.186 85.5,96.5C 89.5218,90.1462 94.8551,85.1462 101.5,81.5C 103.042,80.6993 104.708,80.366 106.5,80.5 Z"/></g>
<g><path style="opacity:1" fill="#1c380c" d="M 132.5,80.5 C 133.167,80.5 133.833,80.5 134.5,80.5C 138.498,89.116 139.498,98.116 137.5,107.5C 135.473,99.6983 133.806,91.6983 132.5,83.5C 132.5,82.5 132.5,81.5 132.5,80.5 Z"/></g>
<g><path style="opacity:1" fill="#eef8e9" d="M 26.5,80.5 C 27.5862,80.62 28.2528,81.2867 28.5,82.5C 28.1401,84.6079 27.4734,86.6079 26.5,88.5C 25.2706,85.8013 25.2706,83.1346 26.5,80.5 Z"/></g>
<g><path style="opacity:1" fill="#eef8e8" d="M 33.5,81.5 C 34.6491,81.7911 35.3158,82.6244 35.5,84C 35.3266,86.0208 34.6599,87.8541 33.5,89.5C 32.2706,86.8013 32.2706,84.1346 33.5,81.5 Z"/></g>
<g><path style="opacity:1" fill="#143202" d="M 72.5,82.5 C 74.8333,83.8333 77.1667,83.8333 79.5,82.5C 79.5,85.5 79.5,88.5 79.5,91.5C 75.6479,93.4551 75.6479,95.1217 79.5,96.5C 79.5,102.167 79.5,107.833 79.5,113.5C 78.5041,113.414 77.6708,113.748 77,114.5C 74.8968,106.61 73.3968,98.6105 72.5,90.5C 71.5033,87.6717 71.5033,85.005 72.5,82.5 Z"/></g>
<g><path style="opacity:1" fill="#1b660c" d="M 79.5,82.5 C 79.8333,82.5 80.1667,82.5 80.5,82.5C 81.1264,85.3149 82.4598,87.8149 84.5,90C 82.7525,90.3519 81.0858,90.8519 79.5,91.5C 79.5,88.5 79.5,85.5 79.5,82.5 Z"/></g>
<g><path style="opacity:1" fill="#1d6004" d="M 132.5,80.5 C 132.5,81.5 132.5,82.5 132.5,83.5C 131.268,90.0244 131.268,96.691 132.5,103.5C 131.513,108.305 131.179,113.305 131.5,118.5C 127.324,125.675 121.324,130.675 113.5,133.5C 113.557,132.391 113.89,131.391 114.5,130.5C 119.439,129.558 121.772,126.558 121.5,121.5C 122.794,120.71 123.961,119.71 125,118.5C 125.768,107.911 124.601,97.578 121.5,87.5C 121.215,85.712 121.548,84.0453 122.5,82.5C 123.833,83.8333 125.167,85.1667 126.5,86.5C 130.03,84.4393 130.364,81.7727 127.5,78.5C 129.854,77.1766 131.521,77.8433 132.5,80.5 Z"/></g>
<g><path style="opacity:1" fill="#36881f" d="M 132.5,83.5 C 133.806,91.6983 135.473,99.6983 137.5,107.5C 137.008,109.819 136.008,111.819 134.5,113.5C 133.518,110.237 132.851,106.903 132.5,103.5C 131.268,96.691 131.268,90.0244 132.5,83.5 Z"/></g>
<g><path style="opacity:1" fill="#193809" d="M 132.5,103.5 C 132.851,106.903 133.518,110.237 134.5,113.5C 134.25,115.674 133.25,117.341 131.5,118.5C 131.179,113.305 131.513,108.305 132.5,103.5 Z"/></g>
<g><path style="opacity:1" fill="#193908" d="M 72.5,110.5 C 73.1621,114.466 73.4955,118.466 73.5,122.5C 72.5,122.167 71.8333,121.5 71.5,120.5C 71.1872,116.958 71.5206,113.625 72.5,110.5 Z"/></g>
<g><path style="opacity:1" fill="#35891e" d="M 72.5,90.5 C 73.3968,98.6105 74.8968,106.61 77,114.5C 77.6708,113.748 78.5041,113.414 79.5,113.5C 81.8669,115.072 83.8669,114.739 85.5,112.5C 83.8513,111.352 82.3513,110.019 81,108.5C 80.86,104.766 81.36,101.099 82.5,97.5C 83.609,97.4431 84.609,97.1098 85.5,96.5C 82.8408,108.186 87.1741,115.853 98.5,119.5C 100.451,123.229 102.784,126.729 105.5,130C 108.644,130.878 111.644,131.045 114.5,130.5C 113.89,131.391 113.557,132.391 113.5,133.5C 111.5,133.833 109.5,134.167 107.5,134.5C 105.408,134.439 103.908,133.439 103,131.5C 102.209,132.745 101.709,134.078 101.5,135.5C 90.0832,135.456 80.7499,131.123 73.5,122.5C 73.4955,118.466 73.1621,114.466 72.5,110.5C 71.2264,103.704 71.2264,97.0374 72.5,90.5 Z"/></g>
<g><path style="opacity:1" fill="#166101" d="M 79.5,96.5 C 80.391,97.1098 81.391,97.4431 82.5,97.5C 81.36,101.099 80.86,104.766 81,108.5C 82.3513,110.019 83.8513,111.352 85.5,112.5C 83.8669,114.739 81.8669,115.072 79.5,113.5C 79.5,107.833 79.5,102.167 79.5,96.5 Z"/></g>
<g><path style="opacity:1" fill="#5aaa47" d="M 98.5,119.5 C 103.493,119.916 108.493,120.249 113.5,120.5C 111.727,121.892 109.727,123.059 107.5,124C 109.5,124.667 111.5,124.667 113.5,124C 114.471,122.519 115.804,121.685 117.5,121.5C 118.833,121.5 120.167,121.5 121.5,121.5C 121.772,126.558 119.439,129.558 114.5,130.5C 111.644,131.045 108.644,130.878 105.5,130C 102.784,126.729 100.451,123.229 98.5,119.5 Z"/></g>
<g><path style="opacity:1" fill="#366817" d="M 113.5,120.5 C 115.099,120.232 116.432,120.566 117.5,121.5C 115.804,121.685 114.471,122.519 113.5,124C 111.5,124.667 109.5,124.667 107.5,124C 109.727,123.059 111.727,121.892 113.5,120.5 Z"/></g>
<g><path style="opacity:1" fill="#165403" d="M 90.5,118.5 C 94.0289,119.609 94.3622,121.442 91.5,124C 87.5963,126.76 83.4296,127.594 79,126.5C 79.0811,124.362 80.0811,124.029 82,125.5C 85.5824,124.085 88.4157,121.752 90.5,118.5 Z"/></g>
<g><path style="opacity:1" fill="#577748" d="M 107.5,134.5 C 105.735,135.461 103.735,135.795 101.5,135.5C 101.709,134.078 102.209,132.745 103,131.5C 103.908,133.439 105.408,134.439 107.5,134.5 Z"/></g>
<g><path style="opacity:1" fill="#60c032" d="M 58.5,143.5 C 70.0422,143.749 77.0422,149.415 79.5,160.5C 76.7462,160.216 74.0795,159.549 71.5,158.5C 69.6046,153.222 65.9379,151.056 60.5,152C 56.2421,156.721 56.9088,160.721 62.5,164C 64.898,164.374 67.2313,164.374 69.5,164C 70.6399,165.973 71.9733,167.807 73.5,169.5C 63.6077,173.32 55.7744,170.653 50,161.5C 48.3,153.237 51.1333,147.237 58.5,143.5 Z"/></g>
<g><path style="opacity:1" fill="#60c033" d="M 137.5,144.5 C 140.835,145.461 142.501,147.794 142.5,151.5C 138.928,151.685 135.928,153.019 133.5,155.5C 135.704,160.124 137.704,164.791 139.5,169.5C 137.755,172.629 135.255,173.629 132,172.5C 129.83,167.983 127.663,163.483 125.5,159C 122.388,159.543 119.388,160.71 116.5,162.5C 115.502,160.51 114.502,158.51 113.5,156.5C 121.561,152.47 129.561,148.47 137.5,144.5 Z"/></g>
<g><path style="opacity:1" fill="#61c135" d="M 83.5,154.5 C 86.1667,154.5 88.8333,154.5 91.5,154.5C 91.5,157.833 91.5,161.167 91.5,164.5C 95.5,164.5 99.5,164.5 103.5,164.5C 103.5,161.5 103.5,158.5 103.5,155.5C 106.167,155.5 108.833,155.5 111.5,155.5C 111.802,163.556 111.469,171.556 110.5,179.5C 107.966,180.777 105.466,180.777 103,179.5C 103.284,176.591 103.117,173.758 102.5,171C 98.5138,170.501 94.5138,170.334 90.5,170.5C 90.5,173.5 90.5,176.5 90.5,179.5C 87.8333,179.5 85.1667,179.5 82.5,179.5C 83.3318,171.195 83.6652,162.862 83.5,154.5 Z"/></g>
</svg>
