<?xml version="1.0" standalone="no"?>
<!DOCTYPE svg PUBLIC "-//W3C//DTD SVG 20010904//EN"
 "http://www.w3.org/TR/2001/REC-SVG-20010904/DTD/svg10.dtd">
<svg version="1.0" xmlns="http://www.w3.org/2000/svg"
 width="200.000000pt" height="200.000000pt" viewBox="0 0 200.000000 200.000000"
 preserveAspectRatio="xMidYMid meet">

<g transform="translate(0.000000,200.000000) scale(0.100000,-0.100000)"
fill="#000000" stroke="none">
<path d="M943 1389 c-65 -12 -84 -26 -77 -54 8 -32 -21 -127 -45 -149 -30 -27
-80 -24 -107 7 l-22 26 -23 -52 c-20 -43 -24 -69 -24 -147 0 -84 3 -102 29
-157 35 -77 114 -154 193 -190 79 -35 193 -37 283 -3 181 68 278 270 221 459
-12 39 -27 71 -33 71 -6 0 -20 7 -30 17 -25 22 -35 9 -20 -29 9 -23 9 -35 0
-45 -9 -11 -15 -10 -33 7 -12 11 -24 20 -28 20 -11 0 -8 -44 7 -112 8 -35 18
-104 22 -154 6 -84 5 -92 -13 -105 -11 -8 -24 -29 -28 -47 -9 -43 -44 -65
-102 -64 -51 1 -65 11 -97 68 -13 24 -39 47 -71 64 -64 35 -99 95 -91 158 5
37 3 42 -14 42 -23 0 -70 20 -70 30 0 11 47 40 65 40 14 0 13 4 -4 26 -33 42
-28 58 18 51 l39 -5 -10 30 c-15 44 2 56 41 29 17 -13 31 -19 31 -14 0 4 10
24 21 43 20 32 22 33 35 15 8 -10 14 -34 14 -52 l0 -33 48 6 c26 3 53 7 60 10
21 6 13 24 -11 24 -30 0 -36 6 -30 30 3 11 16 20 32 22 32 4 35 30 3 38 -13 3
-23 8 -23 13 1 4 1 14 1 22 0 10 11 15 33 16 l32 1 -30 12 c-40 18 -140 25
-192 15z"/>
<path d="M1064 1105 c-6 -16 9 -34 29 -35 13 0 8 27 -8 40 -12 10 -16 9 -21
-5z"/>
<path d="M1155 1101 c-8 -15 3 -31 21 -31 9 0 14 7 12 17 -4 20 -24 28 -33 14z"/>
<path d="M960 1065 c0 -8 2 -15 4 -15 2 0 11 -3 20 -6 12 -4 16 0 16 15 0 14
-6 21 -20 21 -11 0 -20 -7 -20 -15z"/>
<path d="M1162 984 c2 -11 11 -20 22 -22 13 -3 17 1 14 14 -2 11 -11 20 -22
22 -13 3 -17 -1 -14 -14z"/>
<path d="M935 981 c-8 -15 3 -31 21 -31 9 0 14 7 12 17 -4 20 -24 28 -33 14z"/>
<path d="M1060 970 c0 -14 7 -20 21 -20 15 0 19 4 15 16 -3 9 -6 18 -6 20 0 2
-7 4 -15 4 -8 0 -15 -9 -15 -20z"/>
<path d="M944 885 c-6 -16 9 -34 29 -35 13 0 8 27 -8 40 -12 10 -16 9 -21 -5z"/>
<path d="M1154 885 c-4 -10 -1 -21 7 -26 23 -14 31 -10 27 13 -4 27 -26 35
-34 13z"/>
<path d="M1045 880 c-9 -15 3 -30 25 -30 13 0 17 5 13 20 -6 21 -28 27 -38 10z"/>
<path d="M1140 783 c-8 -3 -26 -10 -39 -15 -17 -6 -21 -12 -14 -19 12 -12 83
14 83 30 0 12 -7 13 -30 4z"/>
</g>
</svg>
